<svg width="220" height="40" viewBox="0 0 220 40" fill="none" xmlns="http://www.w3.org/2000/svg">
<circle cx="20" cy="20" r="20" fill="white"/>
<path d="M29.8063 25.1153C29.8063 25.0322 29.7232 25.0322 29.7232 24.9492C29.3911 24.285 28.6439 23.4548 27.6477 22.5416C27.1495 22.1264 26.9004 21.7943 26.7344 21.6283C26.4853 21.2962 26.4853 21.0471 26.5684 20.715C26.6514 20.466 26.9835 20.0509 27.5646 19.3036C27.8967 18.8885 28.0628 18.6395 28.3118 18.3904C29.5572 16.7299 30.1383 15.6506 29.9723 15.1525L29.8893 15.0695C29.8063 14.9865 29.7232 14.9034 29.5572 14.9034C29.3911 14.8204 29.1421 14.8204 28.893 14.9034H25.7381C25.6551 14.9034 25.6551 14.9034 25.4891 14.9034C25.406 14.9034 25.323 14.9034 25.323 14.9034H25.24H25.157L25.0739 14.9865C24.9909 15.0695 24.9909 15.0695 24.9909 15.1525C24.6588 16.0658 24.2437 16.813 23.8286 17.6432C23.5795 18.0583 23.3305 18.4734 23.0814 18.8055C22.8323 19.1376 22.6663 19.3867 22.5002 19.5527C22.3342 19.7188 22.1681 19.8018 22.0851 19.9678C22.0021 20.0509 21.8361 20.1339 21.8361 20.0509C21.753 20.0509 21.67 20.0509 21.67 19.9678C21.587 19.8848 21.504 19.8018 21.4209 19.7188C21.3379 19.6357 21.3379 19.4697 21.2549 19.3036C21.2549 19.1376 21.2549 18.9716 21.2549 18.8885C21.2549 18.8055 21.2549 18.5564 21.2549 18.3904C21.2549 18.1413 21.2549 17.9753 21.2549 17.8923C21.2549 17.6432 21.2549 17.3111 21.2549 16.979C21.2549 16.6469 21.2549 16.3978 21.2549 16.2318C21.2549 16.0658 21.2549 15.8167 21.2549 15.6506C21.2549 15.4016 21.2549 15.2355 21.2549 15.1525C21.2549 15.0695 21.1719 14.9034 21.1719 14.8204C21.0889 14.7374 21.0058 14.6544 20.9228 14.5713C20.8398 14.4883 20.6737 14.4883 20.5907 14.4053C20.1756 14.3223 19.6775 14.2393 19.0963 14.2393C17.7679 14.2393 16.8547 14.3223 16.5226 14.4883C16.3565 14.5714 16.1905 14.6544 16.1075 14.8204C15.9414 14.9865 15.9414 15.0695 16.0245 15.0695C16.4396 15.1525 16.7717 15.3185 16.9377 15.5676L17.0207 15.7337C17.1038 15.8167 17.1037 15.9827 17.1868 16.2318C17.2698 16.4809 17.2698 16.7299 17.2698 17.062C17.2698 17.5602 17.2698 18.0583 17.2698 18.3904C17.2698 18.8055 17.1868 19.0546 17.1868 19.3036C17.1868 19.5527 17.1038 19.7188 17.0207 19.8018C16.9377 19.9678 16.9377 20.0509 16.8547 20.0509C16.8547 20.0509 16.8547 20.1339 16.7717 20.1339C16.6886 20.1339 16.6056 20.2169 16.4396 20.2169C16.3565 20.2169 16.1905 20.1339 16.1075 20.0509C15.9414 19.9678 15.7754 19.8018 15.6924 19.6357C15.5263 19.4697 15.3603 19.2206 15.1942 18.8885C15.0282 18.5564 14.7791 18.2244 14.6131 17.7262L14.447 17.3941C14.364 17.2281 14.198 16.896 14.0319 16.4809C13.8659 16.0658 13.6998 15.7337 13.5338 15.3186C13.4507 15.1525 13.3677 15.0695 13.2847 14.9865H13.2017C13.2017 14.9865 13.1186 14.9034 13.0356 14.9034C12.9526 14.9034 12.8696 14.8204 12.7866 14.8204H9.79773C9.46564 14.8204 9.2996 14.9034 9.21657 14.9865L9.13354 15.0695C9.13354 15.0695 9.13354 15.1525 9.13354 15.2355C9.13354 15.3186 9.13355 15.4016 9.21657 15.5676C9.63169 16.5639 10.1298 17.5602 10.628 18.5564C11.1261 19.4697 11.6242 20.2999 11.9563 20.8811C12.3714 21.4623 12.7035 22.0434 13.1186 22.5416C13.5338 23.0397 13.7828 23.3718 13.8658 23.5378C14.0319 23.7039 14.1149 23.7869 14.1979 23.8699L14.447 24.119C14.6131 24.285 14.8621 24.5341 15.1942 24.7832C15.5263 25.0322 15.9414 25.2813 16.3565 25.5304C16.7717 25.7794 17.2698 25.9455 17.7679 26.1115C18.3491 26.2776 18.8472 26.3606 19.3454 26.2776H20.5907C20.8398 26.2776 21.0058 26.1946 21.1719 26.0285L21.2549 25.9455C21.2549 25.8625 21.3379 25.8625 21.3379 25.7794C21.3379 25.6964 21.3379 25.6134 21.3379 25.4474C21.3379 25.1153 21.3379 24.8662 21.4209 24.6171C21.504 24.3681 21.504 24.202 21.587 24.036C21.67 23.8699 21.753 23.7869 21.8361 23.7039C21.9191 23.6208 22.0021 23.5378 22.0021 23.5378H22.0851C22.2512 23.4548 22.5002 23.5378 22.6663 23.7039C22.9154 23.8699 23.1644 24.119 23.3305 24.3681C23.4965 24.6171 23.7456 24.8662 24.0777 25.1983C24.4098 25.5304 24.6588 25.7794 24.8249 25.8625L25.0739 26.0285C25.24 26.1115 25.406 26.1946 25.6551 26.2776C25.9042 26.3606 26.0702 26.3606 26.2363 26.3606L29.0591 26.2776C29.3081 26.2776 29.5572 26.1946 29.7232 26.1115C29.8893 26.0285 29.9723 25.9455 29.9723 25.7794C29.9723 25.6964 29.9723 25.5304 29.9723 25.4474C29.8062 25.2813 29.8063 25.1983 29.8063 25.1153Z" fill="#A89060"/>
<circle cx="80" cy="20" r="20" fill="white"/>
<path d="M69.3507 20.3741L73.9488 22.0886L75.7413 27.8557C75.8192 28.2454 76.2868 28.3233 76.5985 28.0895L79.1703 25.9853C79.4041 25.7515 79.7938 25.7515 80.1055 25.9853L84.7036 29.3364C85.0154 29.5702 85.483 29.4144 85.5609 29.0247L88.99 12.6587C89.0679 12.269 88.6782 11.8793 88.2886 12.0352L69.3507 19.3609C68.8831 19.5168 68.8831 20.2182 69.3507 20.3741ZM75.5075 21.2313L84.5477 15.6981C84.7036 15.6201 84.8595 15.8539 84.7036 15.9319L77.2999 22.868C77.0661 23.1018 76.8323 23.4135 76.8323 23.8032L76.5985 25.6736C76.5985 25.9074 76.2089 25.9853 76.1309 25.6736L75.1957 22.2445C74.9619 21.8548 75.1178 21.3872 75.5075 21.2313Z" fill="#A89060"/>
<circle cx="140" cy="20" r="20" fill="white"/>
<path d="M149 13.8186C149 12.3212 147.679 11 146.181 11H134.819C133.321 11 132 12.3212 132 13.8186V25.1813C132 26.6787 133.321 28 134.819 28H140.544V21.5699H138.43V18.7513H140.544V17.6062C140.544 15.6684 141.953 13.9948 143.715 13.9948H146.005V16.8135H143.715C143.451 16.8135 143.187 17.0777 143.187 17.6062V18.7513H146.005V21.5699H143.187V28H146.181C147.679 28 149 26.6787 149 25.1813V13.8186Z" fill="#A89060"/>
<circle cx="200" cy="20" r="20" fill="white"/>
<path d="M206.581 12H194.419C193.046 12 192 13.0462 192 14.4192V26.5808C192 27.9538 193.046 29 194.419 29H206.581C207.954 29 209 27.9538 209 26.5808V14.4192C209 13.0462 207.954 12 206.581 12ZM200.5 25.6C203.312 25.6 205.6 23.3769 205.6 20.6962C205.6 20.2385 205.535 19.7154 205.404 19.3231H206.842V26.2538C206.842 26.5808 206.581 26.9077 206.188 26.9077H194.812C194.485 26.9077 194.158 26.6462 194.158 26.2538V19.2577H195.662C195.531 19.7154 195.465 20.1731 195.465 20.6308C195.4 23.3769 197.688 25.6 200.5 25.6ZM200.5 23.6385C198.669 23.6385 197.231 22.2 197.231 20.4346C197.231 18.6692 198.669 17.2308 200.5 17.2308C202.331 17.2308 203.769 18.6692 203.769 20.4346C203.769 22.2654 202.331 23.6385 200.5 23.6385ZM206.777 16.6423C206.777 17.0346 206.45 17.3615 206.058 17.3615H204.227C203.835 17.3615 203.508 17.0346 203.508 16.6423V14.8769C203.508 14.4846 203.835 14.1577 204.227 14.1577H206.058C206.45 14.1577 206.777 14.4846 206.777 14.8769V16.6423Z" fill="#A89060"/>
</svg>
